<svg width="131" height="87" viewBox="0 0 131 87" fill="none" xmlns="http://www.w3.org/2000/svg">
<path d="M72 0C75.1235 13.3333 91.2965 40 131 40C117.696 36.4368 87.2706 23.4483 72 0Z" fill="white"/>
<path d="M11.75 54.75C12.2167 54.8833 12.8167 54.9833 13.55 55.05C14.2833 55.0833 14.9833 55.1 15.65 55.1C16.9833 55.1 18.0833 54.8333 18.95 54.3C19.85 53.7333 20.3 52.8667 20.3 51.7C20.3 50.6 19.9333 49.8167 19.2 49.35C18.4667 48.8833 17.35 48.65 15.85 48.65H11.75V54.75ZM11.75 42.55H15.4C16.8333 42.55 17.8667 42.2833 18.5 41.75C19.1667 41.2167 19.5 40.4333 19.5 39.4C19.5 38.5 19.1167 37.7833 18.35 37.25C17.6167 36.7167 16.5 36.45 15 36.45C14.5 36.45 13.9167 36.4667 13.25 36.5C12.6167 36.5333 12.1167 36.5833 11.75 36.65V42.55ZM15 61.8C14.4333 61.8 13.7667 61.7833 13 61.75C12.2333 61.7167 11.4333 61.65 10.6 61.55C9.8 61.45 9 61.3167 8.2 61.15C7.4 61.0167 6.66667 60.8167 6 60.55C4.16667 59.85 3.25 58.6333 3.25 56.9V33.55C3.25 32.85 3.43333 32.3167 3.8 31.95C4.2 31.55 4.73333 31.2333 5.4 31C6.53333 30.6 7.95 30.3167 9.65 30.15C11.35 29.95 13.1 29.85 14.9 29.85C19.1667 29.85 22.45 30.5667 24.75 32C27.05 33.4333 28.2 35.65 28.2 38.65C28.2 40.15 27.7667 41.45 26.9 42.55C26.0333 43.6167 24.8667 44.4 23.4 44.9C25.0667 45.3667 26.45 46.2167 27.55 47.45C28.6833 48.6833 29.25 50.2333 29.25 52.1C29.25 55.4 28.0167 57.85 25.55 59.45C23.1167 61.0167 19.6 61.8 15 61.8ZM36.357 61.15C34.9237 61.15 33.7904 60.7333 32.957 59.9C32.1237 59.0667 31.707 57.9333 31.707 56.5V30.65C32.0737 30.5833 32.657 30.5 33.457 30.4C34.257 30.2667 35.0237 30.2 35.757 30.2C36.5237 30.2 37.1904 30.2667 37.757 30.4C38.357 30.5 38.857 30.7 39.257 31C39.657 31.3 39.957 31.7167 40.157 32.25C40.357 32.7833 40.457 33.4833 40.457 34.35V54.1H51.907C52.1404 54.4667 52.357 54.9667 52.557 55.6C52.757 56.2 52.857 56.8333 52.857 57.5C52.857 58.8333 52.5737 59.7833 52.007 60.35C51.4404 60.8833 50.6904 61.15 49.757 61.15H36.357ZM81.2035 49.8C81.2035 51.6 80.8869 53.25 80.2535 54.75C79.6535 56.2167 78.7702 57.4833 77.6035 58.55C76.4369 59.5833 75.0202 60.3833 73.3535 60.95C71.6868 61.5167 69.8035 61.8 67.7035 61.8C65.6035 61.8 63.7202 61.5167 62.0535 60.95C60.3868 60.3833 58.9702 59.5833 57.8035 58.55C56.6368 57.4833 55.7368 56.2167 55.1035 54.75C54.5035 53.25 54.2035 51.6 54.2035 49.8V30.7C54.5702 30.6333 55.1535 30.55 55.9535 30.45C56.7535 30.3167 57.5202 30.25 58.2535 30.25C59.0202 30.25 59.6868 30.3167 60.2535 30.45C60.8535 30.55 61.3535 30.75 61.7535 31.05C62.1535 31.35 62.4535 31.7667 62.6535 32.3C62.8535 32.8333 62.9535 33.5333 62.9535 34.4V49.65C62.9535 51.25 63.3868 52.5 64.2535 53.4C65.1535 54.3 66.3035 54.75 67.7035 54.75C69.1369 54.75 70.2869 54.3 71.1535 53.4C72.0202 52.5 72.4535 51.25 72.4535 49.65V30.7C72.8202 30.6333 73.4035 30.55 74.2035 30.45C75.0035 30.3167 75.7702 30.25 76.5035 30.25C77.2702 30.25 77.9369 30.3167 78.5035 30.45C79.1035 30.55 79.6035 30.75 80.0035 31.05C80.4035 31.35 80.7035 31.7667 80.9035 32.3C81.1035 32.8333 81.2035 33.5333 81.2035 34.4V49.8ZM85.0566 35.35C85.0566 33.9167 85.4733 32.7833 86.3066 31.95C87.14 31.1167 88.2733 30.7 89.7066 30.7H106.207C106.44 31.0667 106.64 31.55 106.807 32.15C107.007 32.75 107.107 33.3833 107.107 34.05C107.107 35.3167 106.823 36.2167 106.257 36.75C105.723 37.2833 105.007 37.55 104.107 37.55H93.5566V42.2H104.807C105.04 42.5667 105.24 43.05 105.407 43.65C105.607 44.2167 105.707 44.8333 105.707 45.5C105.707 46.7667 105.44 47.6667 104.907 48.2C104.373 48.7333 103.657 49 102.757 49H93.5566V54.25H106.407C106.64 54.6167 106.84 55.1 107.007 55.7C107.207 56.3 107.307 56.9333 107.307 57.6C107.307 58.8667 107.023 59.7833 106.457 60.35C105.923 60.8833 105.207 61.15 104.307 61.15H89.7066C88.2733 61.15 87.14 60.7333 86.3066 59.9C85.4733 59.0667 85.0566 57.9333 85.0566 56.5V35.35Z" fill="white"/>
</svg>
