<svg xmlns="http://www.w3.org/2000/svg" width="12" height="13" viewBox="0 0 12 13" fill="none">
  <path d="M6.02204 6.5C7.82696 6.5 9.29 5.04507 9.29 3.25014C9.29 1.45522 7.82696 0 6.02204 0C4.21711 0 2.75378 1.45493 2.75378 3.25014C2.75378 5.04536 4.21682 6.5 6.02204 6.5Z" fill="white"/>
  <path d="M8.83229 7.14999H8.61928C7.88064 7.62441 6.98526 7.9028 6.02157 7.90308C5.05789 7.90308 4.1628 7.62469 3.42387 7.14999H3.21115C2.36391 7.14999 1.59278 7.47379 1.03858 7.99334C0.48468 8.51684 0.139282 9.23552 0.139282 10.0301C0.139282 12.2152 3.16994 13.0278 6.02127 12.9993H6.02247C8.87381 13.0275 11.9045 12.2152 11.9045 10.0301C11.9045 9.23552 11.5591 8.51656 11.0049 7.99334C10.4507 7.47379 9.67954 7.14999 8.83229 7.14999Z" fill="white"/>
</svg>